<?xml version="1.0" encoding="UTF-8"?>
<svg xmlns="http://www.w3.org/2000/svg" xmlns:xlink="http://www.w3.org/1999/xlink" viewBox="0 0 60 60" width="60px" height="60px">
<g id="surface176186826">
<path style=" stroke:none;fill-rule:nonzero;fill:rgb(13.333334%,66.666669%,97.647059%);fill-opacity:1;" d="M 46 6 C 41.582031 6 38 9.582031 38 14 C 38 14.574219 38.070312 15.132812 38.183594 15.671875 L 20 24.761719 C 18.535156 23.082031 16.402344 22 14 22 C 9.582031 22 6 25.582031 6 30 C 6 34.417969 9.582031 38 14 38 C 16.402344 38 18.535156 36.917969 20 35.238281 L 38.183594 44.328125 C 38.070312 44.867188 38 45.425781 38 46 C 38 50.417969 41.582031 54 46 54 C 50.417969 54 54 50.417969 54 46 C 54 41.582031 50.417969 38 46 38 C 43.597656 38 41.464844 39.082031 40 40.761719 L 21.816406 31.671875 C 21.929688 31.132812 22 30.574219 22 30 C 22 29.425781 21.929688 28.867188 21.816406 28.328125 L 40 19.238281 C 41.464844 20.917969 43.597656 22 46 22 C 50.417969 22 54 18.417969 54 14 C 54 9.582031 50.417969 6 46 6 Z M 46 6 "/>
</g>
</svg>
